# xmcd CD database file
#
# Track frame offsets:
#	150
#	4332
#	40065
#	82124
#	88534
#	145693
#	157195
#	177190
#	183735
#	220290
#
# Disc length: 3035 seconds
#
# Revision: 0
# Processed by: cddbd v1.5.1PL0 Copyright (c) Steve Scherf et al.
# Submitted via: CDex 1.50
#
DISCID=870bd90a
DTITLE=FLARE - AURORA
DYEAR=1900
DGENRE=JPop
TTITLE0=Haze
TTITLE1=陽炎
TTITLE2=Arquivos do Verao
TTITLE3=Sketch #2
TTITLE4=Ground Art Rocks
TTITLE5=Sketch #3
TTITLE6=Estrela
TTITLE7=Sketch #4
TTITLE8=Fly from EAST
TTITLE9=OhkuraBalearic Sunrise
EXTD=
EXTT0=
EXTT1=
EXTT2=
EXTT3=
EXTT4=
EXTT5=
EXTT6=
EXTT7=
EXTT8=
EXTT9=
PLAYORDER=
